<svg width="16" height="17" viewBox="0 0 16 17" fill="none" xmlns="http://www.w3.org/2000/svg">
<path d="M13.6 17H2.55005V0H13.6C14.535 0 15.3 0.765 15.3 1.7V15.3C15.3 16.235 14.535 17 13.6 17Z" fill="#D5D5D9"/>
<path d="M1.7 0H2.55V17H1.7C0.765 17 0 16.235 0 15.3V1.7C0 0.765 0.765 0 1.7 0Z" fill="#D5D5D9"/>
<path d="M7.97502 8.4C8.91391 8.4 9.67502 7.63888 9.67502 6.7C9.67502 5.76112 8.91391 5 7.97502 5C7.03614 5 6.27502 5.76112 6.27502 6.7C6.27502 7.63888 7.03614 8.4 7.97502 8.4Z" fill="#9796A1"/>
<path d="M10.95 10.95C10.95 10.95 10.1425 9.25 7.975 9.25C5.8075 9.25 5 10.95 5 10.95V11.8H10.95V10.95Z" fill="#9796A1"/>
</svg>
