<svg width="26" height="26" viewBox="0 0 26 26" fill="none" xmlns="http://www.w3.org/2000/svg">
<circle cx="13" cy="13" r="13" fill="white"/>
<path d="M7.08403 10.5021C7.6433 9.28749 8.56118 8.27711 9.70974 7.6042C9.98752 7.44145 10.1784 7.1443 10.1784 6.80621C10.1784 6.18302 9.52873 5.71566 8.94072 6.04794C7.58085 6.81637 6.46067 7.95908 5.71956 9.34945C4.82205 11.0332 4.53601 12.9761 4.91015 14.8471C5.2843 16.7181 6.29549 18.4016 7.7715 19.6108C9.24751 20.8199 11.0971 21.48 13.0051 21.4786C14.9116 21.4771 16.7587 20.8155 18.2325 19.6062C19.7063 18.3969 20.716 16.7146 21.0898 14.8451C21.4636 12.9757 21.1786 11.0345 20.2831 9.35143C19.5439 7.96206 18.4264 6.81937 17.0692 6.04967C16.4817 5.71643 15.8315 6.18346 15.8315 6.80668C15.8315 7.14448 16.0222 7.44138 16.2997 7.60397C17.4485 8.27688 18.3665 9.28736 18.9258 10.5021C19.538 11.8318 19.6849 13.3288 19.3427 14.752C19.0006 16.1753 18.1893 17.4419 17.0396 18.348C15.8899 19.254 14.4687 19.7467 13.0049 19.7467C11.5411 19.7467 10.1199 19.254 8.97023 18.348C7.82054 17.4419 7.00928 16.1753 6.66712 14.752C6.32496 13.3288 6.47181 11.8318 7.08403 10.5021Z" fill="#FE724C" stroke="white" stroke-width="0.5"/>
<path d="M14.25 4.61531C14.25 4.35717 14.1689 4.12289 13.9711 3.96055C13.7827 3.80598 13.5278 3.75 13.25 3.75C12.9722 3.75 12.7173 3.80598 12.5289 3.96055C12.3311 4.12289 12.25 4.35717 12.25 4.61531V10.7684C12.25 11.0265 12.3311 11.2608 12.5289 11.4231C12.7173 11.5777 12.9722 11.6337 13.25 11.6337C13.5278 11.6337 13.7827 11.5777 13.9711 11.4231C14.1689 11.2608 14.25 11.0265 14.25 10.7684V4.61531Z" fill="#FE724C" stroke="white" stroke-width="0.5"/>
</svg>
