<svg width="16" height="17" viewBox="0 0 16 17" fill="none" xmlns="http://www.w3.org/2000/svg">
<circle cx="5.10002" cy="4.25002" r="1.7" fill="#9796A1"/>
<circle cx="7.65007" cy="9.34999" r="1.7" fill="#9796A1"/>
<path d="M7.65 11.05C7.19913 11.05 6.76673 10.8709 6.44792 10.5521C6.12911 10.2333 5.95 9.80087 5.95 9.35C5.95 8.89913 6.12911 8.46673 6.44792 8.14792C6.76673 7.82911 7.19913 7.65 7.65 7.65C8.10087 7.65 8.53327 7.82911 8.85208 8.14792C9.17089 8.46673 9.35 8.89913 9.35 9.35C9.35 9.80087 9.17089 10.2333 8.85208 10.5521C8.53327 10.8709 8.10087 11.05 7.65 11.05ZM3.4 4.25C3.4 3.3065 4.1565 2.55 5.1 2.55C5.55087 2.55 5.98327 2.72911 6.30208 3.04792C6.62089 3.36673 6.8 3.79913 6.8 4.25C6.8 4.70087 6.62089 5.13327 6.30208 5.45208C5.98327 5.77089 5.55087 5.95 5.1 5.95C4.64913 5.95 4.21673 5.77089 3.89792 5.45208C3.57911 5.13327 3.4 4.70087 3.4 4.25ZM7.65 0C4.6155 0 1.8955 1.309 0 3.4L7.65 17L15.3 3.4C13.413 1.309 10.6845 0 7.65 0Z" fill="#D5D5D9"/>
</svg>
