<?xml version="1.0" standalone="no"?>
<!DOCTYPE svg PUBLIC "-//W3C//DTD SVG 20010904//EN"
 "http://www.w3.org/TR/2001/REC-SVG-20010904/DTD/svg10.dtd">
<svg version="1.0" xmlns="http://www.w3.org/2000/svg"
 width="64.000000pt" height="64.000000pt" viewBox="0 0 64.000000 64.000000"
 preserveAspectRatio="xMidYMid meet">

<g transform="translate(0.000000,64.000000) scale(0.100000,-0.100000)"
fill="#000000" stroke="none">
<path d="M338 613 c-61 -7 -43 -18 27 -18 55 0 63 2 48 13 -9 6 -22 11 -27 10
-6 -1 -28 -3 -48 -5z"/>
<path d="M235 578 c-40 -21 -97 -84 -122 -132 -33 -65 -42 -155 -18 -179 37
-38 85 -9 85 51 1 80 70 170 147 191 60 17 73 14 88 -21 8 -18 14 -26 14 -18
1 8 -3 22 -9 30 -5 9 -5 19 0 25 13 16 -102 0 -138 -19 -58 -31 -112 -110
-112 -166 0 -42 -16 -70 -40 -70 -31 0 -41 31 -30 89 16 88 62 153 139 203 42
26 39 40 -4 16z"/>
<path d="M270 415 c-18 -22 -1 -50 31 -50 20 0 24 5 24 30 0 23 -5 31 -21 33
-11 2 -27 -4 -34 -13z m45 -21 c0 -10 -8 -20 -17 -22 -18 -3 -26 27 -11 42 12
11 28 0 28 -20z"/>
<path d="M300 311 c0 -5 5 -13 10 -16 6 -3 10 -2 10 4 0 5 -4 13 -10 16 -5 3
-10 2 -10 -4z"/>
<path d="M262 287 c-2 -15 -8 -18 -34 -13 l-33 6 33 -15 32 -15 0 -84 c0 -64
4 -87 16 -97 19 -16 48 -1 52 27 9 58 13 65 35 62 18 -2 22 -10 25 -43 4 -65
11 -85 30 -85 16 1 16 1 0 11 -13 7 -18 23 -18 54 0 58 -8 75 -34 75 -31 0
-46 -19 -46 -58 0 -29 -3 -33 -22 -30 -22 3 -23 8 -29 113 -3 61 -6 102 -7 92z"/>
<path d="M392 288 c-30 -30 1 -73 36 -51 23 14 25 29 7 47 -20 19 -27 20 -43
4z m43 -28 c0 -8 -10 -16 -22 -18 -18 -3 -23 2 -23 18 0 16 5 21 23 18 12 -2
22 -10 22 -18z"/>
</g>
</svg>
