<svg width="420" height="320" viewBox="0 0 420 320" fill="none" xmlns="http://www.w3.org/2000/svg">
<path d="M181.048 198.619C206.505 198.619 227.143 177.982 227.143 152.524C227.143 127.066 206.505 106.429 181.048 106.429C155.59 106.429 134.952 127.066 134.952 152.524C134.952 177.982 155.59 198.619 181.048 198.619Z" fill="#EDEDED"/>
<g filter="url(#filter0_d_172_7)">
<path d="M156.079 250.476V173.084C156.079 107.109 102.758 53.6111 37 53.6111V131.004C37 196.978 90.3217 250.476 156.079 250.476Z" fill="#C4C4C4"/>
</g>
<g filter="url(#filter1_d_172_7)">
<path d="M232.905 293.69V186.067C232.905 94.3481 307.713 20 400 20V127.623C400 219.342 325.192 293.69 232.905 293.69Z" fill="#5B5B5E"/>
</g>
<defs>
<filter id="filter0_d_172_7" x="0" y="27.6111" width="189.079" height="266.865" filterUnits="userSpaceOnUse" color-interpolation-filters="sRGB">
<feFlood flood-opacity="0" result="BackgroundImageFix"/>
<feColorMatrix in="SourceAlpha" type="matrix" values="0 0 0 0 0 0 0 0 0 0 0 0 0 0 0 0 0 0 127 0" result="hardAlpha"/>
<feOffset dx="-2" dy="9"/>
<feGaussianBlur stdDeviation="17.5"/>
<feColorMatrix type="matrix" values="0 0 0 0 0 0 0 0 0 0 0 0 0 0 0 0 0 0 0.2 0"/>
<feBlend mode="normal" in2="BackgroundImageFix" result="effect1_dropShadow_172_7"/>
<feBlend mode="normal" in="SourceGraphic" in2="effect1_dropShadow_172_7" result="shape"/>
</filter>
<filter id="filter1_d_172_7" x="152.905" y="0" width="267.095" height="373.69" filterUnits="userSpaceOnUse" color-interpolation-filters="sRGB">
<feFlood flood-opacity="0" result="BackgroundImageFix"/>
<feColorMatrix in="SourceAlpha" type="matrix" values="0 0 0 0 0 0 0 0 0 0 0 0 0 0 0 0 0 0 127 0" result="hardAlpha"/>
<feOffset dx="-30" dy="30"/>
<feGaussianBlur stdDeviation="25"/>
<feColorMatrix type="matrix" values="0 0 0 0 0 0 0 0 0 0 0 0 0 0 0 0 0 0 0.21 0"/>
<feBlend mode="normal" in2="BackgroundImageFix" result="effect1_dropShadow_172_7"/>
<feBlend mode="normal" in="SourceGraphic" in2="effect1_dropShadow_172_7" result="shape"/>
</filter>
</defs>
</svg>
